<svg xmlns="http://www.w3.org/2000/svg" viewBox="0 0 461.43 800.25"><defs><style>.cls-1{fill:#1d1d1b;}</style></defs><title>Asset 3</title><g id="Layer_2" data-name="Layer 2"><g id="Capa_1" data-name="Capa 1"><path class="cls-1" d="M229.18,346.31l-31.56-25.92c-4.84-4-11.8-4-15.53,0l-31.37,33.36a8.59,8.59,0,0,0-2.21,7.19,10.73,10.73,0,0,0,1.39,3.89,13.07,13.07,0,0,0,11,6.3l44.87.08-14.4,15.31a8.59,8.59,0,0,0-2.21,7.19,11.56,11.56,0,0,0,4.23,7.2c4.85,4,11.8,4,15.53,0l24.29-25.82L264.79,401c4.84,4,11.8,4,15.53,0a8.57,8.57,0,0,0,2.2-7.19,11.5,11.5,0,0,0-4.22-7.2l-18.72-15.37,44,.08h.72c4.47.05,8.17-2.4,9.36-6.21a8.89,8.89,0,0,0,.31-3.94,11.56,11.56,0,0,0-4.23-7.2L269,320.52c-4.85-4-11.8-4-15.53,0Zm-44.6,4.49,8.31-8.84,10.81,8.87Zm90.5.17-19.13,0,8.32-8.84Z"/><polygon class="cls-1" points="313.7 365.16 294.44 365.16 265.51 538.02 287.44 538.02 313.7 365.16"/><polygon class="cls-1" points="148.42 360.7 167.86 360.7 197.04 539.87 174.92 539.87 148.42 360.7"/><path class="cls-1" d="M257.93,615.23c-12.84-1.69-73.09-10.11-89.17-11.39-5.31-.42-9.52-.62-13.27-.62-18.59,0-28.52,5.79-29.51,17.2-2,23.58,49.11,28.14,83,31.16,5.55.49,10.35.92,13.7,1.35,10.13,1.3,19.88,2.17,29.31,3,9.12.81,17.75,1.57,26.15,2.67,3.69.49,7.45,1.26,11.44,2.07,6.7,1.37,13.63,2.78,20.4,2.78h0c8.14,0,14.76-2,20.24-6.24a5.72,5.72,0,0,0,1.46-1.61c4.72-7.8,5.27-14.71,1.63-20.53C325.15,622.09,262.84,615.88,257.93,615.23Z"/><path class="cls-1" d="M258.59,673.06c-5.8-.37-10.81-.68-14-1.09-9.13-1.15-18-2.91-27.41-4.77-16.93-3.36-34.44-6.83-54.51-6.83-2.74,0-5.49.07-8.2.2-9.07.44-27.93,1.35-28.48,18.76-.66,20.91,40.39,25.54,80.08,30,6.66.75,12.94,1.46,18.78,2.23,3.17.41,7.74,1.15,13,2,17.07,2.76,42.88,6.92,62.79,6.92h.08c7.44,0,29.68,0,33.65-13.11a16.73,16.73,0,0,0-3.21-16.3C320.13,678,290.54,675.07,258.59,673.06Z"/><path class="cls-1" d="M283.39,730.83a36.25,36.25,0,0,0-9.74-1.44c-12.52,0-18.6,8-23.49,14.36-5.69,7.45-9.67,12-19.25,12h0a38.32,38.32,0,0,1-6-.53c-6.18-1-9.18-4.9-13.55-11.18-4.53-6.5-10.17-14.58-22.7-15.39-1.42-.09-2.8-.13-4.11-.13-16.54,0-21.65,7.46-23.22,11.91-6,17,18.21,44.39,27.59,49.68,11.56,6.53,26.55,10.12,42.22,10.12,17.26,0,33.39-4.35,45.42-12.24s26.94-26.59,23.95-41.39C298.94,739.06,292.87,733.46,283.39,730.83Z"/><path class="cls-1" d="M449.9,159.24C433.11,105.58,399,59.85,356.26,33.78,327.31,16.11,287.8,4.09,247.85.81c-56.8-4.66-113.48,10.84-157,42.69-37,27.06-66.51,71.54-81,122.06C-1.76,205.94-8.91,268.3,22.83,336.1c8.49,18.13,19.78,35.19,30.71,51.7,17.67,26.7,35.95,54.32,42.64,87,2.34,11.45,2.52,21.28,2.69,30,.18,9.58.33,17.86,3.21,25.71,7.22,19.67,29.83,40.65,52.6,48.79,15.61,5.58,36.41,6,56.38,6,2.85,0,46.35.4,52,.4,6.66,0,13.81-.13,20.83-.77A93,93,0,0,0,304,581.21c25.75-8.31,47.33-31.25,54.56-48.62,3.69-8.84,4.47-20.68,5.29-33.22.56-8.37,1.13-17,2.61-24.62,7-35.93,24.05-61.05,42.06-87.66,11.8-17.43,24-35.46,33.24-56.82C464.81,276.89,467.71,216.15,449.9,159.24ZM253.46,539.46l0,.41H209.07Zm-44.39.41c-17.92,0-57.74-11.36-62.71-19.88-3.78-6.5-4-14.77-4.18-24.34-.1-4.77-.21-9.71-.75-15-4.42-43.34-26.19-77.82-47.24-111.17q-3.3-5.22-6.55-10.42C66.15,324.59,45.15,286.35,45,231.54,44.7,127.61,106.69,80.35,158.74,59a190.64,190.64,0,0,1,72.63-14.11c47.62,0,94.57,17.58,125.6,47,47.66,45.24,64.69,92.69,58.77,163.75-3.88,46.68-26.45,81.63-48.27,115.43-20.41,31.63-41.52,64.33-46.28,105.7a155.25,155.25,0,0,0-.78,16.75c-.07,8.33-.13,15.52-2.6,21.43-4.43,10.58-50.2,24.89-64.35,24.48Z"/></g></g></svg>